<svg width="17" height="16" viewBox="0 0 17 16" fill="none" xmlns="http://www.w3.org/2000/svg">
<path d="M3.83505 9.66889L3.27811 11.748L1.24248 11.7911C0.63413 10.6627 0.289062 9.37177 0.289062 7.9999C0.289062 6.67332 0.611692 5.42233 1.18358 4.3208H1.18401L2.99629 4.65305L3.79017 6.45441C3.62402 6.93882 3.53345 7.45881 3.53345 7.9999C3.53351 8.58715 3.63989 9.1498 3.83505 9.66889Z" fill="#FBBB00"/>
<path d="M16.1493 6.50488C16.2412 6.98882 16.2891 7.4886 16.2891 7.99937C16.2891 8.57212 16.2289 9.1308 16.1141 9.66971C15.7247 11.5035 14.7071 13.1048 13.2974 14.238L13.297 14.2376L11.0143 14.1211L10.6913 12.1044C11.6266 11.5559 12.3576 10.6974 12.7427 9.66971H8.46484V6.50488H12.8051H16.1493Z" fill="#518EF8"/>
<path d="M13.2969 14.2386L13.2973 14.2391C11.9263 15.341 10.1847 16.0004 8.28888 16.0004C5.24224 16.0004 2.59343 14.2975 1.24219 11.7916L3.83476 9.66943C4.51036 11.4725 6.24973 12.756 8.28888 12.756C9.16536 12.756 9.9865 12.5191 10.6911 12.1055L13.2969 14.2386Z" fill="#28B446"/>
<path d="M13.3947 1.84174L10.803 3.96348C10.0737 3.50767 9.21173 3.24436 8.28822 3.24436C6.20291 3.24436 4.43101 4.58675 3.78925 6.45446L1.18305 4.32085H1.18262C2.51407 1.75383 5.1963 0 8.28822 0C10.2293 0 12.0091 0.691433 13.3947 1.84174Z" fill="#F14336"/>
</svg>
