<svg width="20" height="20" viewBox="0 0 20 20" fill="none" xmlns="http://www.w3.org/2000/svg">
<path fill-rule="evenodd" clip-rule="evenodd" d="M9.81346 11.2207C9.25596 11.2207 8.70012 11.0366 8.23512 10.6682L4.49762 7.65491C4.22846 7.43824 4.18679 7.04408 4.40262 6.77574C4.62012 6.50824 5.01346 6.46574 5.28179 6.68158L9.01596 9.69158C9.48512 10.0632 10.146 10.0632 10.6185 9.68824L14.3151 6.68324C14.5835 6.46408 14.9768 6.50574 15.1951 6.77408C15.4126 7.04158 15.3718 7.43491 15.1043 7.65324L11.401 10.6632C10.9326 11.0349 10.3726 11.2207 9.81346 11.2207" fill="#767C83"/>
<mask id="mask0_1101_11679" style="mask-type:luminance" maskUnits="userSpaceOnUse" x="0" y="1" width="19" height="17">
<path fill-rule="evenodd" clip-rule="evenodd" d="M0.833008 1.6665H18.7496V17.9165H0.833008V1.6665Z" fill="white"/>
</mask>
<g mask="url(#mask0_1101_11679)">
<path fill-rule="evenodd" clip-rule="evenodd" d="M5.69884 16.6665H13.8822C13.8838 16.6648 13.8905 16.6665 13.8955 16.6665C14.8463 16.6665 15.6897 16.3265 16.3363 15.6807C17.0872 14.9332 17.4997 13.859 17.4997 12.6565V6.93317C17.4997 4.60567 15.978 2.9165 13.8822 2.9165H5.70051C3.60467 2.9165 2.08301 4.60567 2.08301 6.93317V12.6565C2.08301 13.859 2.49634 14.9332 3.24634 15.6807C3.89301 16.3265 4.73717 16.6665 5.68717 16.6665H5.69884ZM5.68467 17.9165C4.39884 17.9165 3.25051 17.4498 2.36384 16.5665C1.37634 15.5815 0.833008 14.1932 0.833008 12.6565V6.93317C0.833008 3.93067 2.92551 1.6665 5.70051 1.6665H13.8822C16.6572 1.6665 18.7497 3.93067 18.7497 6.93317V12.6565C18.7497 14.1932 18.2063 15.5815 17.2188 16.5665C16.333 17.449 15.1838 17.9165 13.8955 17.9165H13.8822H5.70051H5.68467Z" fill="#767C83"/>
</g>
</svg>
